<svg xmlns="http://www.w3.org/2000/svg" width="1024" height="1024" viewBox="0 0 1024 1024">
  <rect width="1024" height="1024" fill="#000000"/>

  <!-- Outer ring -->
  <circle cx="512.0" cy="512.0" r="470" fill="none" stroke="#D4AF37" stroke-width="10" />

  <!-- Greek key tiles around the ring -->
  <g fill="none" stroke="#D4AF37" stroke-width="10" stroke-linecap="square" stroke-linejoin="miter">
    <path d="M 6,6 H 50 V 34.7 H 25.2 V 16.8 H 39.2 V 25.2 H 32.5" transform="translate(512.0 512.0) rotate(0.000) translate(0 -470.0) rotate(90.000) translate(-28.0, -28.0)" /><path d="M 6,6 H 50 V 34.7 H 25.2 V 16.8 H 39.2 V 25.2 H 32.5" transform="translate(512.0 512.0) rotate(11.250) translate(0 -470.0) rotate(101.250) translate(-28.0, -28.0)" /><path d="M 6,6 H 50 V 34.7 H 25.2 V 16.8 H 39.2 V 25.2 H 32.5" transform="translate(512.0 512.0) rotate(22.500) translate(0 -470.0) rotate(112.500) translate(-28.0, -28.0)" /><path d="M 6,6 H 50 V 34.7 H 25.2 V 16.8 H 39.2 V 25.2 H 32.5" transform="translate(512.0 512.0) rotate(33.750) translate(0 -470.0) rotate(123.750) translate(-28.0, -28.0)" /><path d="M 6,6 H 50 V 34.7 H 25.2 V 16.8 H 39.2 V 25.2 H 32.5" transform="translate(512.0 512.0) rotate(45.000) translate(0 -470.0) rotate(135.000) translate(-28.0, -28.0)" /><path d="M 6,6 H 50 V 34.7 H 25.2 V 16.8 H 39.2 V 25.2 H 32.5" transform="translate(512.0 512.0) rotate(56.250) translate(0 -470.0) rotate(146.250) translate(-28.0, -28.0)" /><path d="M 6,6 H 50 V 34.7 H 25.2 V 16.8 H 39.2 V 25.2 H 32.5" transform="translate(512.0 512.0) rotate(67.500) translate(0 -470.0) rotate(157.500) translate(-28.0, -28.0)" /><path d="M 6,6 H 50 V 34.7 H 25.2 V 16.8 H 39.2 V 25.2 H 32.5" transform="translate(512.0 512.0) rotate(78.750) translate(0 -470.0) rotate(168.750) translate(-28.0, -28.0)" /><path d="M 6,6 H 50 V 34.7 H 25.2 V 16.8 H 39.2 V 25.2 H 32.5" transform="translate(512.0 512.0) rotate(90.000) translate(0 -470.0) rotate(180.000) translate(-28.0, -28.0)" /><path d="M 6,6 H 50 V 34.7 H 25.2 V 16.8 H 39.2 V 25.2 H 32.5" transform="translate(512.0 512.0) rotate(101.250) translate(0 -470.0) rotate(191.250) translate(-28.0, -28.0)" /><path d="M 6,6 H 50 V 34.7 H 25.2 V 16.8 H 39.2 V 25.2 H 32.5" transform="translate(512.0 512.0) rotate(112.500) translate(0 -470.0) rotate(202.500) translate(-28.0, -28.0)" /><path d="M 6,6 H 50 V 34.7 H 25.2 V 16.8 H 39.2 V 25.2 H 32.5" transform="translate(512.0 512.0) rotate(123.750) translate(0 -470.0) rotate(213.750) translate(-28.0, -28.0)" /><path d="M 6,6 H 50 V 34.7 H 25.2 V 16.8 H 39.2 V 25.2 H 32.5" transform="translate(512.0 512.0) rotate(135.000) translate(0 -470.0) rotate(225.000) translate(-28.0, -28.0)" /><path d="M 6,6 H 50 V 34.7 H 25.2 V 16.8 H 39.2 V 25.2 H 32.5" transform="translate(512.0 512.0) rotate(146.250) translate(0 -470.0) rotate(236.250) translate(-28.0, -28.0)" /><path d="M 6,6 H 50 V 34.7 H 25.2 V 16.8 H 39.2 V 25.2 H 32.5" transform="translate(512.0 512.0) rotate(157.500) translate(0 -470.0) rotate(247.500) translate(-28.0, -28.0)" /><path d="M 6,6 H 50 V 34.7 H 25.2 V 16.8 H 39.2 V 25.2 H 32.5" transform="translate(512.0 512.0) rotate(168.750) translate(0 -470.0) rotate(258.750) translate(-28.0, -28.0)" /><path d="M 6,6 H 50 V 34.7 H 25.2 V 16.8 H 39.2 V 25.2 H 32.5" transform="translate(512.0 512.0) rotate(180.000) translate(0 -470.0) rotate(270.000) translate(-28.0, -28.0)" /><path d="M 6,6 H 50 V 34.7 H 25.2 V 16.8 H 39.2 V 25.2 H 32.5" transform="translate(512.0 512.0) rotate(191.250) translate(0 -470.0) rotate(281.250) translate(-28.0, -28.0)" /><path d="M 6,6 H 50 V 34.7 H 25.2 V 16.8 H 39.2 V 25.2 H 32.5" transform="translate(512.0 512.0) rotate(202.500) translate(0 -470.0) rotate(292.500) translate(-28.0, -28.0)" /><path d="M 6,6 H 50 V 34.7 H 25.2 V 16.8 H 39.2 V 25.2 H 32.5" transform="translate(512.0 512.0) rotate(213.750) translate(0 -470.0) rotate(303.750) translate(-28.0, -28.0)" /><path d="M 6,6 H 50 V 34.7 H 25.2 V 16.8 H 39.2 V 25.2 H 32.5" transform="translate(512.0 512.0) rotate(225.000) translate(0 -470.0) rotate(315.000) translate(-28.0, -28.0)" /><path d="M 6,6 H 50 V 34.7 H 25.2 V 16.8 H 39.2 V 25.2 H 32.5" transform="translate(512.0 512.0) rotate(236.250) translate(0 -470.0) rotate(326.250) translate(-28.0, -28.0)" /><path d="M 6,6 H 50 V 34.7 H 25.2 V 16.8 H 39.2 V 25.2 H 32.5" transform="translate(512.0 512.0) rotate(247.500) translate(0 -470.0) rotate(337.500) translate(-28.0, -28.0)" /><path d="M 6,6 H 50 V 34.7 H 25.2 V 16.8 H 39.2 V 25.2 H 32.5" transform="translate(512.0 512.0) rotate(258.750) translate(0 -470.0) rotate(348.750) translate(-28.0, -28.0)" /><path d="M 6,6 H 50 V 34.7 H 25.2 V 16.8 H 39.2 V 25.2 H 32.5" transform="translate(512.0 512.0) rotate(270.000) translate(0 -470.0) rotate(360.000) translate(-28.0, -28.0)" /><path d="M 6,6 H 50 V 34.7 H 25.2 V 16.8 H 39.2 V 25.2 H 32.5" transform="translate(512.0 512.0) rotate(281.250) translate(0 -470.0) rotate(371.250) translate(-28.0, -28.0)" /><path d="M 6,6 H 50 V 34.7 H 25.2 V 16.8 H 39.2 V 25.2 H 32.5" transform="translate(512.0 512.0) rotate(292.500) translate(0 -470.0) rotate(382.500) translate(-28.0, -28.0)" /><path d="M 6,6 H 50 V 34.7 H 25.2 V 16.8 H 39.2 V 25.2 H 32.5" transform="translate(512.0 512.0) rotate(303.750) translate(0 -470.0) rotate(393.750) translate(-28.0, -28.0)" /><path d="M 6,6 H 50 V 34.7 H 25.2 V 16.8 H 39.2 V 25.2 H 32.5" transform="translate(512.0 512.0) rotate(315.000) translate(0 -470.0) rotate(405.000) translate(-28.0, -28.0)" /><path d="M 6,6 H 50 V 34.7 H 25.2 V 16.8 H 39.2 V 25.2 H 32.5" transform="translate(512.0 512.0) rotate(326.250) translate(0 -470.0) rotate(416.250) translate(-28.0, -28.0)" /><path d="M 6,6 H 50 V 34.7 H 25.2 V 16.8 H 39.2 V 25.2 H 32.5" transform="translate(512.0 512.0) rotate(337.500) translate(0 -470.0) rotate(427.500) translate(-28.0, -28.0)" /><path d="M 6,6 H 50 V 34.7 H 25.2 V 16.8 H 39.2 V 25.2 H 32.5" transform="translate(512.0 512.0) rotate(348.750) translate(0 -470.0) rotate(438.750) translate(-28.0, -28.0)" />
  </g>

  <!-- Iris -->
  <circle cx="512.0" cy="512.0" r="190" fill="#D4AF37"/>
  <circle cx="512.0" cy="512.0" r="85" fill="#000000"/>

  <!-- Rays with greek-key curls -->
  <g fill="none" stroke="#D4AF37" stroke-width="26" stroke-linecap="square" stroke-linejoin="miter">
    <path d="M 0 -212.0 L 0 -420.0 L 26.0 -420.0 L 26.0 -394.0 L -26.0 -394.0 L -26.0 -446.0 L 26.0 -446.0 " transform="translate(512.0 512.0) rotate(0.000)" /><path d="M 0 -212.0 L 0 -420.0 L 26.0 -420.0 L 26.0 -394.0 L -26.0 -394.0 L -26.0 -446.0 L 26.0 -446.0 " transform="translate(512.0 512.0) rotate(22.500)" /><path d="M 0 -212.0 L 0 -420.0 L 26.0 -420.0 L 26.0 -394.0 L -26.0 -394.0 L -26.0 -446.0 L 26.0 -446.0 " transform="translate(512.0 512.0) rotate(45.000)" /><path d="M 0 -212.0 L 0 -420.0 L 26.0 -420.0 L 26.0 -394.0 L -26.0 -394.0 L -26.0 -446.0 L 26.0 -446.0 " transform="translate(512.0 512.0) rotate(67.500)" /><path d="M 0 -212.0 L 0 -420.0 L 26.0 -420.0 L 26.0 -394.0 L -26.0 -394.0 L -26.0 -446.0 L 26.0 -446.0 " transform="translate(512.0 512.0) rotate(90.000)" /><path d="M 0 -212.0 L 0 -420.0 L 26.0 -420.0 L 26.0 -394.0 L -26.0 -394.0 L -26.0 -446.0 L 26.0 -446.0 " transform="translate(512.0 512.0) rotate(112.500)" /><path d="M 0 -212.0 L 0 -420.0 L 26.0 -420.0 L 26.0 -394.0 L -26.0 -394.0 L -26.0 -446.0 L 26.0 -446.0 " transform="translate(512.0 512.0) rotate(135.000)" /><path d="M 0 -212.0 L 0 -420.0 L 26.0 -420.0 L 26.0 -394.0 L -26.0 -394.0 L -26.0 -446.0 L 26.0 -446.0 " transform="translate(512.0 512.0) rotate(157.500)" /><path d="M 0 -212.0 L 0 -420.0 L 26.0 -420.0 L 26.0 -394.0 L -26.0 -394.0 L -26.0 -446.0 L 26.0 -446.0 " transform="translate(512.0 512.0) rotate(180.000)" /><path d="M 0 -212.0 L 0 -420.0 L 26.0 -420.0 L 26.0 -394.0 L -26.0 -394.0 L -26.0 -446.0 L 26.0 -446.0 " transform="translate(512.0 512.0) rotate(202.500)" /><path d="M 0 -212.0 L 0 -420.0 L 26.0 -420.0 L 26.0 -394.0 L -26.0 -394.0 L -26.0 -446.0 L 26.0 -446.0 " transform="translate(512.0 512.0) rotate(225.000)" /><path d="M 0 -212.0 L 0 -420.0 L 26.0 -420.0 L 26.0 -394.0 L -26.0 -394.0 L -26.0 -446.0 L 26.0 -446.0 " transform="translate(512.0 512.0) rotate(247.500)" /><path d="M 0 -212.0 L 0 -420.0 L 26.0 -420.0 L 26.0 -394.0 L -26.0 -394.0 L -26.0 -446.0 L 26.0 -446.0 " transform="translate(512.0 512.0) rotate(270.000)" /><path d="M 0 -212.0 L 0 -420.0 L 26.0 -420.0 L 26.0 -394.0 L -26.0 -394.0 L -26.0 -446.0 L 26.0 -446.0 " transform="translate(512.0 512.0) rotate(292.500)" /><path d="M 0 -212.0 L 0 -420.0 L 26.0 -420.0 L 26.0 -394.0 L -26.0 -394.0 L -26.0 -446.0 L 26.0 -446.0 " transform="translate(512.0 512.0) rotate(315.000)" /><path d="M 0 -212.0 L 0 -420.0 L 26.0 -420.0 L 26.0 -394.0 L -26.0 -394.0 L -26.0 -446.0 L 26.0 -446.0 " transform="translate(512.0 512.0) rotate(337.500)" />
  </g>
</svg>
