<svg xmlns="http://www.w3.org/2000/svg" viewBox="0 0 500 500" width="500" height="500">
  <rect width="500" height="500" fill="#000000"/>
  <!-- Variant 4: Wider gap between pupil and lines -->
  <g stroke="#C9A84C" stroke-width="7" stroke-linecap="square">
    <line x1="250" y1="155" x2="250" y2="30"/>
    <line x1="283.5" y1="163.5" x2="334.2" y2="46.7"/>
    <line x1="310" y1="190" x2="405.6" y2="94.4"/>
    <line x1="326.5" y1="216.5" x2="453.3" y2="165.8"/>
    <line x1="345" y1="250" x2="470" y2="250"/>
    <line x1="326.5" y1="283.5" x2="453.3" y2="334.2"/>
    <line x1="310" y1="310" x2="405.6" y2="405.6"/>
    <line x1="283.5" y1="326.5" x2="334.2" y2="453.3"/>
    <line x1="250" y1="345" x2="250" y2="470"/>
    <line x1="216.5" y1="326.5" x2="165.8" y2="453.3"/>
    <line x1="190" y1="310" x2="94.4" y2="405.6"/>
    <line x1="163.5" y1="283.5" x2="46.7" y2="334.2"/>
    <line x1="155" y1="250" x2="30" y2="250"/>
    <line x1="163.5" y1="216.5" x2="46.7" y2="165.8"/>
    <line x1="190" y1="190" x2="94.4" y2="94.4"/>
    <line x1="216.5" y1="163.5" x2="165.8" y2="46.7"/>
  </g>
  <circle cx="250" cy="250" r="90" fill="#000000"/>
</svg>
