<svg xmlns="http://www.w3.org/2000/svg" viewBox="0 0 500 500" width="500" height="500">
  <rect width="500" height="500" fill="#000000"/>
  
  <g stroke="#C9A84C" stroke-width="7" stroke-linecap="square">
    <line x1="250" y1="180" x2="250" y2="30"/>
    <line x1="276.8" y1="185.3" x2="334.2" y2="46.7"/>
    <line x1="299.5" y1="200.5" x2="405.6" y2="94.4"/>
    <line x1="314.7" y1="223.2" x2="453.3" y2="165.8"/>
    <line x1="320" y1="250" x2="470" y2="250"/>
    <line x1="314.7" y1="276.8" x2="453.3" y2="334.2"/>
    <line x1="299.5" y1="299.5" x2="405.6" y2="405.6"/>
    <line x1="276.8" y1="314.7" x2="334.2" y2="453.3"/>
    <line x1="250" y1="320" x2="250" y2="470"/>
    <line x1="223.2" y1="314.7" x2="165.8" y2="453.3"/>
    <line x1="200.5" y1="299.5" x2="94.4" y2="405.6"/>
    <line x1="185.3" y1="276.8" x2="46.7" y2="334.2"/>
    <line x1="180" y1="250" x2="30" y2="250"/>
    <line x1="185.3" y1="223.2" x2="46.7" y2="165.8"/>
    <line x1="200.5" y1="200.5" x2="94.4" y2="94.4"/>
    <line x1="223.2" y1="185.3" x2="165.8" y2="46.7"/>
  </g>

  <circle cx="250" cy="250" r="68" fill="#000000"/>
</svg>
